<?xml version="1.0" standalone="no"?>
<!DOCTYPE svg PUBLIC "-//W3C//DTD SVG 20010904//EN"
 "http://www.w3.org/TR/2001/REC-SVG-20010904/DTD/svg10.dtd">
<svg version="1.0" xmlns="http://www.w3.org/2000/svg"
 width="512.000000pt" height="512.000000pt" viewBox="0 0 512.000000 512.000000"
 preserveAspectRatio="xMidYMid meet">
<metadata>
Created by potrace 1.14, written by Peter Selinger 2001-2017
</metadata>
<g transform="translate(0.000000,512.000000) scale(0.100000,-0.100000)"
fill="#000000" stroke="none">
<path d="M2483 5111 c-47 -12 -48 -13 -1056 -594 -680 -393 -949 -553 -981
-585 -49 -49 -91 -127 -106 -199 -7 -33 -10 -441 -8 -1238 3 -1131 4 -1192 21
-1227 41 -82 19 -68 662 -438 270 -156 607 -350 749 -433 143 -82 274 -157
290 -167 17 -10 92 -53 166 -95 213 -123 229 -129 340 -129 115 -1 125 4 445
189 121 70 240 139 265 153 25 14 99 57 165 95 66 38 141 82 166 96 75 43 338
195 372 215 18 10 154 88 302 174 454 261 451 259 493 342 16 33 17 115 20
1218 2 745 -1 1203 -7 1237 -14 73 -46 137 -98 196 -49 53 -60 60 -588 364
-170 99 -535 309 -810 468 -275 159 -522 301 -550 315 -27 13 -58 29 -68 33
-25 13 -146 19 -184 10z"/>
</g>
</svg>
